<svg xmlns="http://www.w3.org/2000/svg" width="98.99939" height="55.32648" viewBox="0 0 98.99939 55.32648">
  <title>UNC script mark Tar Heels white-navy</title>
  <g id="Layer_2" data-name="Layer 2">
    <g id="page3">
      <g>
        <path d="M97.16437,29.60663a1.532,1.532,0,1,1-1.536,1.533,1.52978,1.52978,0,0,1,1.536-1.533m0,3.363a1.83,1.83,0,1,0-1.834-1.83,1.82052,1.82052,0,0,0,1.834,1.83m.318-1.738a.52307.52307,0,0,0,.549-.563c0-.434-.335-.546-.707-.546h-.867v2.059h.297v-.95h.382l.527.95h.339Zm-.215-.811c.24694,0,.46594.02.46594.28,0,.28-.382.233-.66095.233h-.318v-.513Z" style="fill: #feffff"/>
        <path d="M1.8103,21.236a4.47686,4.47686,0,0,0,.836,1.491c.032.039.06494.073.098.111a1.846,1.846,0,0,0,1.34.599,1.54148,1.54148,0,0,0,.218-.021.491.491,0,0,0-.188-.441,2.53218,2.53218,0,0,1-.57-.993,3.12342,3.12342,0,0,1-.172-1.212,2.52565,2.52565,0,0,1,.125-.602,2.47861,2.47861,0,0,1,2.145-1.559,7.56947,7.56947,0,0,1,1.689-.086l4.546.202a7.96013,7.96013,0,0,0,1.32.019c.202-.001.319.052.342.12a.19535.19535,0,0,1-.068.195,5.1798,5.1798,0,0,0-1.33,1.554c-.885,1.475-1.715,4.511-2.036,9.463l-.3,4.513a9.10429,9.10429,0,0,1-.986,3.767,2.75813,2.75813,0,0,1-2.314,1.649,1.90016,1.90016,0,0,1-1.542-.882l-.042-.066a.19419.19419,0,0,0-.171-.047.36119.36119,0,0,0-.261.247,3.76356,3.76356,0,0,0,.024.947,3.4473,3.4473,0,0,0,2.639,2.673,2.70967,2.70967,0,0,0,.525.043c.028,0,.057-.002.083-.004a4.78159,4.78159,0,0,0,.845-.07605c2.285-.412,4.792-2.471,5.005-6.346l.354-6.45606c.193-3.835.715-8.384,1.459-9.98a4.34657,4.34657,0,0,1,1.418-1.791,7.523,7.523,0,0,0,3.071-1.684,10.94081,10.94081,0,0,0,2.541-3.967,1.29658,1.29658,0,0,0,.103-.896c-.175-.515-.48-.422-.717-.125a6.28505,6.28505,0,0,1-1.691,1.182,12.38025,12.38025,0,0,1-4.222,1.563,14.22031,14.22031,0,0,1-3.409.178l-5.027-.334a7.16125,7.16125,0,0,0-1.69.085,5.11991,5.11991,0,0,0-4.248,5.697,6.448,6.448,0,0,0,.25805,1.27" style="fill: #feffff"/>
        <path d="M94.59454,25.58759a.18139.18139,0,0,0-.217-.118.34161.34161,0,0,0-.233.18c-.007.012-.266.526-.409.771a10.166,10.166,0,0,1-4.481,4.371c-.128.061-.255.116-.379.166a26.73074,26.73074,0,0,1-5.021,1.247c-4.135.788-19.48095,3.422-44.608,7.824-18.195,3.19-34.168,5.988-38.084,6.696l.545.886c8.047,2.015,11.676,3.793,15.105,6.883.039.036.121.12805.211.113a.58318.58318,0,0,0,.2-.131c4.51-3.87995,11.604-5.641,17.784-7.485,2.397-.711,19.114-5.359,36.591-9.242,8.619-1.911,15.413-3.426,16.686-3.785,3.413-.969,6.564-2.472,6.54505-6.883a8.96556,8.96556,0,0,0-.235-1.493" style="fill: #feffff"/>
        <path d="M57.72327,31.74792a4.68789,4.68789,0,0,0,.449.655,3.243,3.243,0,0,0,2.888,1.273l.016-.002c3.054-.539,6.002-3.976,6.735-4.885a5.98944,5.98944,0,0,0,.477,1.095,4.59141,4.59141,0,0,0,.448.654,3.23162,3.23162,0,0,0,2.887,1.271l.017-.001a10.689,10.689,0,0,0,5.768-3.601l.005-.005a2.05182,2.05182,0,0,0,2.502,2.14905l2.99-.528a3.80371,3.80371,0,0,0,2.5-1.853c2.487,2.156,5.131.357,6.802-2.50195,1.901-3.25.584-8.88306-5.438-11.14106-.013-.005-.026-.00695-.039-.011a.19947.19947,0,0,0-.073,0,.33872.33872,0,0,0-.209.141l-.04205.075-1.037,1.873-.042.074a.36452.36452,0,0,0-.018.062c.001.038.001.075.002.112.082,3.849-1.38,8.802-2.813,9.541a1.42985,1.42985,0,0,1-.308.097c-.989.175-.841-1.529-.798-2.317l2.001-22.866a.32222.32222,0,0,0-.365-.384l-2.491.441-.006.001-1.964.346s-.582.17005-.236.77a11.64036,11.64036,0,0,1,1.227,5.654l-1.392,15.908c-.708,1.13-3.028,4.244-5.449,4.671-.926.164-1.424.054-1.705-.557a29.5004,29.5004,0,0,0,3.441-2.9,11.883,11.883,0,0,0,2.586-3.942,4.742,4.742,0,0,0-.709-3.423,3.88109,3.88109,0,0,0-.543-.496,3.15812,3.15812,0,0,0-2.503-.579c-2.841.502-5.451,4.3-5.829,8.484q-.036.39148-.042.767c-.484.782-2.76,4.06994-5.26,4.512-.926.164-1.423.053-1.706-.559a29.32525,29.32525,0,0,0,3.441-2.89795,11.89233,11.89233,0,0,0,2.587-3.943,4.73741,4.73741,0,0,0-.711-3.42206,3.84029,3.84029,0,0,0-.542-.498,3.15448,3.15448,0,0,0-2.502-.578c-2.842.501-5.451,4.301-5.829,8.48505a9.63619,9.63619,0,0,0,.199,3.145,6.38534,6.38534,0,0,0,.633,1.635m29.935-14.365c4.611,5.868,1.586,8.346.286,8.576a3.13982,3.13982,0,0,1-2.03-.243,23.937,23.937,0,0,0,1.744-8.333m-17.033,7.16c.23-2.55,1.296-4.706,2.39106-4.966a.82747.82747,0,0,1,.86895.367c.828,1.282-1.311,3.763-3.304,5.657a10.453,10.453,0,0,1,.04394-1.058M60.0603,26.4079c.231-2.55,1.298-4.706,2.392-4.965a.82756.82756,0,0,1,.869.366c.829,1.282-1.312,3.763-3.303,5.658a10.46941,10.46941,0,0,1,.042-1.059" style="fill: #feffff"/>
        <path d="M35.0047,12.86a2.64326,2.64326,0,0,0,.076.343,1.85205,1.85205,0,0,0,1.693,1.29,2.41122,2.41122,0,0,0,.283-.03705.36047.36047,0,0,0,.18005-.167l.014-.028a.3724.3724,0,0,0,.025-.094.24416.24416,0,0,0-.06806-.181,1.55944,1.55944,0,0,1-.371-1.384,1.312,1.312,0,0,1,.436-.763,1.84468,1.84468,0,0,1,1.19306-.406c.809,0,3.707.573,5.261.293.096-.016.16-.028.255-.046a24.85686,24.85686,0,0,0-2.31,9.121l-.136,1.596h-.004l-.163,2.514-.279,4.177a10.46524,10.46524,0,0,1-.441,2.47c-1.154,3.616-2.931,4.144-3.581,4.181-.196.012-.64.006-.761.188-.17694.271.619.787.785.891a4.83851,4.83851,0,0,0,2.854.587c2.254-.407,4.76-2.466,5.004-6.348l.306-5.605a8.0846,8.0846,0,0,1,1.982.992,13.16143,13.16143,0,0,1,4.917,6.713,9.81041,9.81041,0,0,1,.379,1.43c.034.102.113.235.4.182l3.363-.606c.16-.028.188-.143.162-.321a79.60911,79.60911,0,0,1-1.389-13.047,55.48705,55.48705,0,0,1,1.384-14.287c.143-.574.03-.808-.143-.923-.391-.259-.646.08-.85.481-1.06,1.94495-3.069,7.759-3.435,16.886-.061,1.326-.048,2.566-.052,3.663a17.77722,17.77722,0,0,0-4.701-3.16895,10.51063,10.51063,0,0,0-1.868-.651l.125-2.033c.238-3.804.926-8.431,1.638-10.02a8.60018,8.60018,0,0,1,1.617-2.302c.332-.316.489-.747.077-1.073-.229-.179-.50305-.093-.848.08a6.38788,6.38788,0,0,1-2.759,1.009c-1.562.062-5.011-.853-7.385-.096a3.95506,3.95506,0,0,0-2.875,4.431c.003.022.006.046.01.069" style="fill: #feffff"/>
        <path d="M21.03619,25.23962c-1.36.241-4.967,1.953-5.563,8.551-.596,6.596,1.509,7.557,3.285,7.244a5.07261,5.07261,0,0,0,3.099-2.288,2.00208,2.00208,0,0,0,2.378,1.321l2.989-.528a3.9065,3.9065,0,0,0,2.973-3.173l.006-.005.011-.141.005-.04h-.001l.578-6.59.029-.34a2.90918,2.90918,0,0,1,1.789-2.244c1.695-.893,2.349-.70605,2.66-.146a1.59829,1.59829,0,0,1-.161,1.734c-.377.541.104.445.104.445,1.112-.336,1.752-1.646,2.022-2.73a2.373,2.373,0,0,0-1.607-3.073c-1.612-.415-4.358,1.918-4.456,2.002l.002-.025.101-1.159c.024-.258-.137-.438-.359-.399l-2.477.438a.60927.60927,0,0,0-.444.539l-.962,10.996a.81674.81674,0,0,1-.62.674l-.779.136a.42828.42828,0,0,1-.518-.489l.974-11.136c.024-.257-.139-.43695-.36-.397l-2.477.437a.61294.61294,0,0,0-.444.539l-.016.189-.006-.003s-.396-.579-1.755-.339m1.49006,3.431-.54,6.16706c-.089.991-.812,2.345-1.8,2.521-.989.173-2.071-1.251-1.762-4.67.309-3.42,2.009-4.868,3.103-5.061.949-.168,1.004.787.999,1.043" style="fill: #feffff"/>
        <path d="M1.12958,21.46521a5.19993,5.19993,0,0,0,.963,1.719c.025.031.134.152.134.152a2.58132,2.58132,0,0,0,1.829.82H4.0976a2.14372,2.14372,0,0,0,.33-.033l.526-.093.062-.532a1.20528,1.20528,0,0,0-.421-1.05695,1.93211,1.93211,0,0,1-.36895-.689,2.38746,2.38746,0,0,1-.137-.921,1.81235,1.81235,0,0,1,.089-.432c.071-.209.29-.85,1.594-1.083a5.96049,5.96049,0,0,1,1.079-.086c.143,0,.293.004.449.011,0,0,4.699.209,4.763.212a7.4833,7.4833,0,0,0-.537.791c-1.086,1.81-1.846,5.286-2.137,9.784l-.3,4.504a8.45257,8.45257,0,0,1-.894,3.46905,2.12526,2.12526,0,0,1-1.68,1.285l-.07105.002a1.229,1.229,0,0,1-.88495-.57l-.076-.117-.055-.054a.89509.89509,0,0,0-.636-.259.92568.92568,0,0,0-.169.015,1.08092,1.08092,0,0,0-.82.74,3.95713,3.95713,0,0,0,.006,1.298,4.143,4.143,0,0,0,3.216,3.242,3.35524,3.35524,0,0,0,.606.054h.047q.054,0,.108-.003a5.53047,5.53047,0,0,0,.947-.087c2.619-.471,5.364-2.824,5.595-7.014l.355-6.459c.222-4.439.796-8.43305,1.383-9.693a3.687,3.687,0,0,1,1.103-1.46106,8.23651,8.23651,0,0,0,3.22-1.79895,11.6104,11.6104,0,0,0,2.745-4.275l.012-.036a1.9146,1.9146,0,0,0,.091-1.32,1.08144,1.08144,0,0,0-1.023-.857,1.18044,1.18044,0,0,0-.934.512,6.51874,6.51874,0,0,1-1.503,1.017,11.73609,11.73609,0,0,1-3.979,1.471,12.86925,12.86925,0,0,1-2.29895.198c-.307,0-.623-.01-.933-.03l-5.035-.335c-.186-.01-.367-.016-.543-.016a7.44993,7.44993,0,0,0-1.314.111,5.84894,5.84894,0,0,0-4.834,6.489,6.92727,6.92727,0,0,0,.29,1.415m4.671-7.196a7.15535,7.15535,0,0,1,1.689-.085l5.028.334a14.22338,14.22338,0,0,0,3.409-.178,12.39081,12.39081,0,0,0,4.222-1.563,6.31722,6.31722,0,0,0,1.691-1.182c.236-.298.542-.39.717.125a1.29768,1.29768,0,0,1-.104.896,10.91714,10.91714,0,0,1-2.541,3.966,7.50208,7.50208,0,0,1-3.07,1.685,4.33827,4.33827,0,0,0-1.418,1.791c-.744,1.596-1.267,6.145-1.459,9.98l-.35394,6.456c-.213,3.875-2.72,5.934-5.005,6.346a4.80173,4.80173,0,0,1-.845.075c-.026.002-.056.004-.083.004a2.62919,2.62919,0,0,1-.525-.043,3.4461,3.4461,0,0,1-2.639-2.672,3.781,3.781,0,0,1-.025-.94806.36466.36466,0,0,1,.262-.246.1916.1916,0,0,1,.171.047c.014.022.027.044.042.066a1.89513,1.89513,0,0,0,1.542.881,2.75473,2.75473,0,0,0,2.314-1.648,9.10859,9.10859,0,0,0,.986-3.768l.3-4.512c.321-4.953,1.151-7.989,2.036-9.463a5.153,5.153,0,0,1,1.33-1.554.19528.19528,0,0,0,.068-.195c-.023-.069-.14-.121-.343-.12a7.954,7.954,0,0,1-1.319-.019l-4.547-.202a7.56842,7.56842,0,0,0-1.688.086,2.47786,2.47786,0,0,0-2.145,1.558,2.54382,2.54382,0,0,0-.125.603,3.1228,3.1228,0,0,0,.172,1.212,2.55235,2.55235,0,0,0,.569.993.48865.48865,0,0,1,.189.44,1.41228,1.41228,0,0,1-.218.022,1.85071,1.85071,0,0,1-1.341-.6c-.032-.037-.065-.071-.097-.11a4.47663,4.47663,0,0,1-.836-1.491,6.45337,6.45337,0,0,1-.258-1.27,5.1199,5.1199,0,0,1,4.24805-5.697" style="fill: #12284b"/>
        <path d="M95.417,26.00348a4.36776,4.36776,0,0,0-.154-.644l.011-.004a.88985.88985,0,0,0-.854-.609.906.906,0,0,0-.16095.014,1.06975,1.06975,0,0,0-.757.56695c-.053.103-.271.53205-.387.73005a9.54067,9.54067,0,0,1-4.169,4.086c-.113.053-.228.103-.335.146a23.28149,23.28149,0,0,1-4.37,1.11395c-.187.035-.362.066-.52.095-2.579.492-9.719,1.736-20.526,3.619-6.597,1.15-14.647,2.552-24.072,4.203l-3.499.61395c-16.594,2.908-30.925,5.42-34.589,6.082L0,46.20349l1.249,2.033.284.072c7.602,1.902,11.335,3.598,14.799,6.719a.96363.96363,0,0,0,.67.299l.084-.002.062-.011a1.12465,1.12465,0,0,0,.543-.294c3.90405-3.357,9.786-5.076,15.476-6.739q1.035-.30148,2.045-.601c2.321-.688,18.92-5.315,36.54205-9.23,9.91595-2.198,15.518-3.454,16.727-3.795,3.506-.996,7.088-2.674,7.068-7.578a6.25339,6.25339,0,0,0-.132-1.073m-7.132,7.96c-1.273.359-8.067,1.874-16.687,3.785-17.476,3.883-34.194,8.531-36.59,9.242-6.18,1.844-13.275,3.605-17.785,7.485a.5752.5752,0,0,1-.2.131c-.09.015-.172-.077-.211-.113-3.428-3.09-7.057-4.868-15.104-6.883l-.545-.886c3.916-.708,19.889-3.50605,38.084-6.696,25.127-4.402,40.473-7.036,44.607-7.824a26.72051,26.72051,0,0,0,5.022-1.247c.124-.05.251-.105.379-.166a10.16373,10.16373,0,0,0,4.48-4.371c.144-.245.403-.759.409-.771a.34134.34134,0,0,1,.234-.18.18234.18234,0,0,1,.217.118,8.96465,8.96465,0,0,1,.235,1.493c.018,4.411-3.133,5.914-6.545,6.883" style="fill: #12284b"/>
        <path d="M73.88538,19.944a.82759.82759,0,0,0-.869-.367c-1.095.26-2.161,2.416-2.391,4.966a10.18882,10.18882,0,0,0-.044,1.058c1.993-1.894,4.132-4.375,3.304-5.657m-.704.332a.10043.10043,0,0,1,.023-.003.17042.17042,0,0,1,.078.061c.209.324-.017,1.36-1.816,3.343.353-1.96,1.178-3.274,1.715-3.401" style="fill: #12284b"/>
        <path d="M87.94434,25.95868c1.3-.23,4.325-2.708-.286-8.576a23.93685,23.93685,0,0,1-1.744,8.333,3.1323,3.1323,0,0,0,2.03.243m.286-6.502c1.074,1.78,1.428,3.327.996,4.458a2.12791,2.12791,0,0,1-1.406,1.336,3.18442,3.18442,0,0,1-.544.049,2.76907,2.76907,0,0,1-.385-.027,22.837,22.837,0,0,0,1.33905-5.816" style="fill: #12284b"/>
        <path d="M63.321,21.8092a.8275.8275,0,0,0-.86895-.366c-1.094.259-2.16,2.415-2.392,4.965a10.46561,10.46561,0,0,0-.042,1.058c1.992-1.894,4.132-4.376,3.303-5.657m-.70294.333a.07283.07283,0,0,1,.023-.004c.017,0,.059.036.077.062.209.323-.017,1.357-1.817,3.342.355-1.96,1.18-3.274,1.717-3.4" style="fill: #12284b"/>
        <path d="M34.29492,12.97a3.20123,3.20123,0,0,0,.103.457,2.58014,2.58014,0,0,0,2.349,1.785l.041-.001a2.86132,2.86132,0,0,0,.439-.058l.04895-.012.046-.018a1.08036,1.08036,0,0,0,.554-.504l.039-.083a1.18446,1.18446,0,0,0,.073-.276.9537.9537,0,0,0-.315-.822.941.941,0,0,1-.13-.703.60057.60057,0,0,1,.201-.35395,1.14726,1.14726,0,0,1,.722-.229c.21,0,.686.058,1.19.12a25.99882,25.99882,0,0,0,3.026.25c.03705,0,.072,0,.107-.001a28.07,28.07,0,0,0-1.83295,8.219l-.10205,1.193-.011.006-.028.411c-.094,1.432-.141,2.138-.135,2.51495l-.028-.00195-.279,4.177a9.5949,9.5949,0,0,1-.409,2.29895c-1.086,3.408-2.638,3.665-2.94,3.682l-.069.004a1.4612,1.4612,0,0,0-1.248.508.87806.87806,0,0,0-.122.681c.032.147.131.595,1.127,1.21405a5.84612,5.84612,0,0,0,2.695.742,3.7872,3.7872,0,0,0,.667-.058c2.594-.47,5.329-2.818,5.594-7.016l.25-4.594a6.46555,6.46555,0,0,1,.916.536,12.38572,12.38572,0,0,1,4.64,6.347,9.511,9.511,0,0,1,.351,1.314l.009.058.018.055a.9702.9702,0,0,0,.96.687,1.41049,1.41049,0,0,0,.248-.023l3.358-.605a.925.925,0,0,0,.752-1.136l-.009-.044c-.004-.02-.181-.852-.407-2.306a6.33318,6.33318,0,0,0,.345.717,5.46063,5.46063,0,0,0,.516.755,3.91442,3.91442,0,0,0,3.545,1.529l.041-.005c2.611-.461,5.07995-2.79,6.404-4.249.019.036.038.071.058.105a5.27151,5.27151,0,0,0,.517.755,3.951,3.951,0,0,0,3.121,1.552c.117,0,.237-.005.374-.018l.032-.002.059-.009a10.47826,10.47826,0,0,0,5.256-2.876A2.66669,2.66669,0,0,0,79.4679,31.11a3.40526,3.40526,0,0,0,.573-.051l2.989-.529a4.33842,4.33842,0,0,0,2.537-1.543,3.93326,3.93326,0,0,0,2.141.652h.001c1.837,0,3.703-1.388,5.119-3.80805a7.52559,7.52559,0,0,0,.42505-6.242,10.0724,10.0724,0,0,0-6.211-5.927.85846.85846,0,0,0-.138-.043l-.028-.007-.029-.005a1.0068,1.0068,0,0,0-.156-.013.82791.82791,0,0,0-.157.014,1.05833,1.05833,0,0,0-.67005.43l-.024.033-1.166,2.104-.02.052a1.00876,1.00876,0,0,0-.051.182l-.013.074.004.186c.082,3.868-1.432,8.325-2.405,8.876-.013.005-.027.00995-.04.014a4.86547,4.86547,0,0,1-.046-1.426l.005-.096,2.001-22.866a1.08394,1.08394,0,0,0-.273-.841,1.02279,1.02279,0,0,0-.75-.33,1.21127,1.21127,0,0,0-.184.016L78.40289.811l-.038.011a1.24506,1.24506,0,0,0-.783.696,1.249,1.249,0,0,0,.128,1.124,10.97041,10.97041,0,0,1,1.133,5.232l-1.04,11.89a5.13851,5.13851,0,0,0-.902-2.507l-.01795-.024-.02105-.021a4.52386,4.52386,0,0,0-.645-.592,3.86582,3.86582,0,0,0-2.32-.776,4.21824,4.21824,0,0,0-.738.067c-2.54206.448-4.84906,3.088-5.889,6.447a5.45723,5.45723,0,0,0-.935-3.236l-.018-.023-.019-.021a4.37569,4.37569,0,0,0-.647-.593,3.85365,3.85365,0,0,0-2.319-.77594,4.21506,4.21506,0,0,0-.737.066c-3.175.561-5.985,4.541-6.413,9.074-.176-1.775-.326-3.827-.393-6.08a55.36419,55.36419,0,0,1,1.35-14.045l.012-.043a1.43114,1.43114,0,0,0-.443-1.694,1.1744,1.1744,0,0,0-.659-.211,1.46472,1.46472,0,0,0-1.219.94605c-1.136,2.082-3.155,8.048-3.522,17.197-.034.735-.045,1.45-.049,2.12a20.63821,20.63821,0,0,0-3.677-2.241,10.12219,10.12219,0,0,0-1.424-.539l.09-1.452c.249-4.007.957-8.39,1.561-9.743a7.88817,7.88817,0,0,1,1.472-2.104,1.57607,1.57607,0,0,0,.545-1.195,1.30371,1.30371,0,0,0-.521-.964,1.175,1.175,0,0,0-.73205-.252,1.9965,1.9965,0,0,0-.879.253c-.117.058-.251.132-.397.213a4.67494,4.67494,0,0,1-2.071.723c-.043.00195-.087.003-.134.003a17.42006,17.42006,0,0,1-1.794-.159,26.4973,26.4973,0,0,0-3.118-.243,8.31684,8.31684,0,0,0-2.54.34,4.69991,4.69991,0,0,0-3.352,5.243Zm22.596,13.997c.378-4.183,2.988-7.983,5.83-8.484a3.15507,3.15507,0,0,1,2.502.578,3.82918,3.82918,0,0,1,.542.498,4.73555,4.73555,0,0,1,.71,3.422,11.85983,11.85983,0,0,1-2.586,3.942,29.34027,29.34027,0,0,1-3.442,2.899c.283.612.78.723,1.706.559,2.5-.442,4.777-3.73,5.26-4.512q.00752-.375.042-.767c.379-4.184,2.988-7.982,5.829-8.48395a3.157,3.157,0,0,1,2.503.579,3.82308,3.82308,0,0,1,.543.496,4.73731,4.73731,0,0,1,.709,3.423,11.89324,11.89324,0,0,1-2.586,3.942,29.50637,29.50637,0,0,1-3.44,2.9c.281.611.779.72,1.705.557,2.421-.427,4.741-3.541,5.449-4.672l1.391-15.907a11.64231,11.64231,0,0,0-1.226-5.654c-.347-.6.235-.77.235-.77l1.964-.346.00605-.001,2.491-.441a.32193.32193,0,0,1,.365.384l-2.001,22.866c-.043.788-.191,2.491.798,2.317a1.43822,1.43822,0,0,0,.309-.097c1.433-.739,2.894-5.692,2.812-9.541-.001-.037-.001-.074-.002-.112a.36619.36619,0,0,1,.018-.062l.042-.074,1.037-1.873.042-.075a.33717.33717,0,0,1,.209-.141.19833.19833,0,0,1,.073,0c.013.004.027.006.039.011,6.023,2.258,7.339,7.89,5.439,11.14-1.672,2.86-4.316,4.659-6.803,2.502a3.79981,3.79981,0,0,1-2.5,1.854l-2.989.528a2.05216,2.05216,0,0,1-2.503-2.149l-.005.005a10.68638,10.68638,0,0,1-5.767,3.601l-.017.001a3.23455,3.23455,0,0,1-2.888-1.271,4.68862,4.68862,0,0,1-.448-.655,5.98062,5.98062,0,0,1-.477-1.094c-.733.909-3.68,4.345-6.735,4.884l-.016.002a3.23708,3.23708,0,0,1-2.887-1.272,4.604,4.604,0,0,1-.449-.655,6.31546,6.31546,0,0,1-.633-1.63495,9.61273,9.61273,0,0,1-.2-3.146m10.001-3.058q-.10053.55654-.152,1.128c-.019.20105-.032.40405-.04.61505-.86,1.334-2.804,3.69-4.672,4.02-.1.018-.192.032-.275.042.028-.022.056-.043.085-.066a19.12035,19.12035,0,0,0,2.58-2.238,15.17083,15.17083,0,0,0,2.474-3.501m10.75-2.32-.175,2.017c-.9,1.384-2.947,3.86-4.874,4.201-.1.018-.192.032-.275.04.03095-.022.061-.04595.091-.069a19.12034,19.12034,0,0,0,2.574-2.234,13.672,13.672,0,0,0,2.659-3.955M37.86993,8.36c2.374-.757,5.822.158,7.385.096a6.39326,6.39326,0,0,0,2.759-1.009c.345-.173.61895-.259.848-.08.411.326.255.757-.077,1.073a8.57805,8.57805,0,0,0-1.617,2.302c-.712,1.589-1.401,6.216-1.638,10.02l-.125,2.033a10.47263,10.47263,0,0,1,1.867.651,17.76549,17.76549,0,0,1,4.702,3.16895c.00305-1.097-.009-2.337.052-3.663.365-9.127,2.374-14.941,3.435-16.886.204-.401.459-.74005.849-.481.173.115.287.349.144.923a55.4368,55.4368,0,0,0-1.384,14.287,79.60854,79.60854,0,0,0,1.389,13.047c.026.178-.002.293-.162.321l-3.364.606c-.28705.053-.365-.08-.39905-.182a9.80323,9.80323,0,0,0-.379-1.43,13.16763,13.16763,0,0,0-4.917-6.713,8.10316,8.10316,0,0,0-1.982-.992l-.306,5.605c-.244,3.882-2.75,5.941-5.004,6.348a4.83833,4.83833,0,0,1-2.854-.587c-.166-.104-.962-.62-.785-.891.121-.182.565-.176.76-.188.651-.037,2.428-.565,3.581-4.181a10.41767,10.41767,0,0,0,.442-2.47l.279-4.177.163-2.514h.004l.136-1.596a24.88033,24.88033,0,0,1,2.309-9.121c-.094.018-.158.03-.255.046-1.553.28-4.452-.293-5.26-.293a1.84724,1.84724,0,0,0-1.194.406,1.31055,1.31055,0,0,0-.435.763,1.55647,1.55647,0,0,0,.371,1.384.24072.24072,0,0,1,.067.181.37039.37039,0,0,1-.024.094l-.014.028a.36033.36033,0,0,1-.18.167,2.43213,2.43213,0,0,1-.284.03705,1.85182,1.85182,0,0,1-1.692-1.29,2.49209,2.49209,0,0,1-.07605-.343c-.004-.02295-.007-.047-.01-.069a3.9541,3.9541,0,0,1,2.875-4.431" style="fill: #12284b"/>
        <path d="M21.52728,27.62708c-1.094.194-2.794,1.64105-3.103,5.061s.773,4.844,1.762,4.67c.988-.176,1.711-1.529,1.8-2.521l.54-6.167c.005-.255-.05-1.21-.999-1.043m-.256,7.146c-.069.76105-.641,1.776-1.21,1.877a.21945.21945,0,0,1-.036.004.47553.47553,0,0,1-.295-.177c-.197-.217-.825-1.125-.59-3.725.268-2.962,1.649-4.264,2.512-4.417a.4326.4326,0,0,1,.085-.009l.013.001a.77425.77425,0,0,1,.057.308Z" style="fill: #12284b"/>
        <path d="M22.42719,24.56171a2.85537,2.85537,0,0,0-.773-.099,4.28822,4.28822,0,0,0-.743.069c-.554.098-5.43,1.188-6.154,9.194-.32,3.545.07605,5.872,1.21,7.115a2.941,2.941,0,0,0,2.228.964,3.92267,3.92267,0,0,0,.688-.063,5.47528,5.47528,0,0,0,2.913-1.728,2.703,2.703,0,0,0,1.983.814,3.299,3.299,0,0,0,.581-.052l2.989-.529a4.60446,4.60446,0,0,0,3.504-3.48l.04-.032.03595-.444.103-.829h-.029l.536-6.13a2.22421,2.22421,0,0,1,1.41-1.689,3.60879,3.60879,0,0,1,1.496-.535c.144,0,.16.028.202.103a.906.906,0,0,1-.124.973,1.04845,1.04845,0,0,0-.178,1.126.87564.87564,0,0,0,.798.45606,1.087,1.087,0,0,0,.214-.02106l.04-.009.028-.008c1.663-.502,2.31-2.437,2.511-3.245a3.065,3.065,0,0,0-2.125-3.942,2.37668,2.37668,0,0,0-.594-.072,6.60626,6.60626,0,0,0-3.245,1.277,1.05155,1.05155,0,0,0-.25-.487.99176.99176,0,0,0-.743-.326,1.07115,1.07115,0,0,0-.184.015l-2.475.438a1.32908,1.32908,0,0,0-1.03705,1.184l-.959,10.965c-.004.021-.033.056-.031.06l-.428.076.945-10.792a1.11132,1.11132,0,0,0-.274-.86.995.995,0,0,0-.741-.327,1.07632,1.07632,0,0,0-.186.017l-2.47705.43695a1.22391,1.22391,0,0,0-.705.416m3.307-.145c.22095-.04.384.14.36.39605l-.974,11.137a.42735.42735,0,0,0,.518.488l.779-.135a.81677.81677,0,0,0,.62-.674l.962-10.996a.60927.60927,0,0,1,.444-.539l2.477-.438c.222-.039.383.141.359.399l-.101,1.15906-.002.025c.098-.084,2.844-2.417,4.456-2.002a2.373,2.373,0,0,1,1.607,3.073c-.27,1.08405-.91,2.39405-2.022,2.73,0,0-.481.096-.104-.445a1.59832,1.59832,0,0,0,.161-1.734c-.311-.56-.965-.747-2.66.146a2.90927,2.90927,0,0,0-1.789,2.244l-.029.34-.578,6.59h.001l-.005.04-.011.141-.006.005a3.90665,3.90665,0,0,1-2.973,3.173l-2.989.528a2.00208,2.00208,0,0,1-2.378-1.321,5.0727,5.0727,0,0,1-3.099,2.288c-1.776.313-3.881-.648-3.285-7.244.596-6.598,4.203-8.311,5.563-8.551,1.359-.24006,1.755.339,1.755.339l.005.003.017-.189a.61294.61294,0,0,1,.444-.539Z" style="fill: #12284b"/>
      </g>
    </g>
  </g>
</svg>
