<svg xmlns="http://www.w3.org/2000/svg" width="98.99939" height="55.32648" viewBox="0 0 98.99939 55.32648">
  <title>UNC script mark Tar Heels blue-white</title>
  <g id="Layer_2" data-name="Layer 2">
    <g id="page3">
      <g>
        <path d="M97.16443,29.60663a1.532,1.532,0,1,1-1.536,1.533,1.52973,1.52973,0,0,1,1.536-1.533m0,3.363a1.83,1.83,0,1,0-1.834-1.83,1.82047,1.82047,0,0,0,1.834,1.83m.318-1.738a.52306.52306,0,0,0,.54895-.563c0-.434-.335-.546-.707-.546H96.4574v2.059h.297v-.95h.382l.5271.95h.339Zm-.215-.811c.24694,0,.46594.02.46594.28,0,.28-.382.233-.661.233h-.318v-.513Z" style="fill: #7aadd3"/>
        <path d="M1.81042,21.236a4.47786,4.47786,0,0,0,.83594,1.491c.032.039.06494.073.098.111a1.84588,1.84588,0,0,0,1.34.599,1.54148,1.54148,0,0,0,.218-.021.49107.49107,0,0,0-.188-.441,2.53219,2.53219,0,0,1-.57007-.993,3.12455,3.12455,0,0,1-.172-1.212,2.53154,2.53154,0,0,1,.125-.602,2.47869,2.47869,0,0,1,2.145-1.559,7.57024,7.57024,0,0,1,1.68909-.086l4.5459.202a7.96085,7.96085,0,0,0,1.32007.019c.202-.001.319.052.34192.12a.19535.19535,0,0,1-.068.195,5.18179,5.18179,0,0,0-1.33,1.554c-.885,1.475-1.715,4.511-2.036,9.463l-.29993,4.513a9.10529,9.10529,0,0,1-.98608,3.767,2.758,2.758,0,0,1-2.314,1.649,1.90009,1.90009,0,0,1-1.542-.882l-.042-.066a.19426.19426,0,0,0-.171-.047.361.361,0,0,0-.261.247,3.76007,3.76007,0,0,0,.02393.947,3.44744,3.44744,0,0,0,2.639,2.673,2.70989,2.70989,0,0,0,.525.043c.028,0,.057-.002.083-.004a4.7809,4.7809,0,0,0,.845-.07605c2.285-.412,4.792-2.471,5.005-6.346l.354-6.45606c.193-3.835.715-8.384,1.459-9.98a4.34665,4.34665,0,0,1,1.418-1.791,7.5221,7.5221,0,0,0,3.071-1.684,10.94176,10.94176,0,0,0,2.541-3.967,1.29664,1.29664,0,0,0,.103-.896c-.175-.515-.48-.422-.717-.125a6.28439,6.28439,0,0,1-1.691,1.182,12.3794,12.3794,0,0,1-4.22193,1.563,14.22081,14.22081,0,0,1-3.40906.178l-5.027-.334a7.16044,7.16044,0,0,0-1.68994.085,5.11986,5.11986,0,0,0-4.248,5.697,6.44363,6.44363,0,0,0,.258,1.27" style="fill: #7aadd3"/>
        <path d="M94.5946,25.58759a.18138.18138,0,0,0-.217-.118.34171.34171,0,0,0-.233.18c-.007.012-.266.526-.40893.771a10.16591,10.16591,0,0,1-4.48108,4.371c-.12793.061-.255.116-.379.166a26.72963,26.72963,0,0,1-5.021,1.247c-4.13489.788-19.48095,3.422-44.60791,7.824-18.19507,3.19-34.16809,5.988-38.084,6.696l.54492.886c8.047,2.015,11.676,3.793,15.105,6.883.03906.036.12109.12805.21106.113a.58348.58348,0,0,0,.2-.131c4.51-3.87995,11.604-5.641,17.78406-7.485,2.397-.711,19.114-5.359,36.59094-9.242,8.619-1.911,15.41309-3.426,16.686-3.785,3.413-.969,6.564-2.472,6.545-6.883a8.97221,8.97221,0,0,0-.235-1.493" style="fill: #7aadd3"/>
        <path d="M57.72339,31.74792a4.69361,4.69361,0,0,0,.449.655,3.24315,3.24315,0,0,0,2.88806,1.273l.016-.002c3.054-.539,6.002-3.976,6.735-4.885a5.99,5.99,0,0,0,.47693,1.095,4.59141,4.59141,0,0,0,.448.654,3.23167,3.23167,0,0,0,2.88708,1.271l.017-.001a10.68861,10.68861,0,0,0,5.768-3.601l.005-.005A2.05185,2.05185,0,0,0,79.91541,30.351l2.99-.528a3.804,3.804,0,0,0,2.5-1.853c2.48693,2.156,5.131.357,6.802-2.50195,1.901-3.25.584-8.88306-5.438-11.14106-.01306-.005-.026-.00695-.03906-.011a.19947.19947,0,0,0-.073,0,.33888.33888,0,0,0-.209.141l-.042.075-1.037,1.873-.042.074a.36029.36029,0,0,0-.01806.062c.00109.038.00109.075.00207.112.08191,3.849-1.38,8.802-2.813,9.541a1.43018,1.43018,0,0,1-.3081.097c-.98889.175-.84094-1.529-.798-2.317l2.001-22.866a.32219.32219,0,0,0-.365-.384l-2.491.441-.006.001-1.964.346s-.582.17005-.236.77a11.64055,11.64055,0,0,1,1.22693,5.654l-1.392,15.908c-.708,1.13-3.02807,4.244-5.449,4.671-.926.164-1.42408.054-1.70508-.557a29.50088,29.50088,0,0,0,3.441-2.9,11.88271,11.88271,0,0,0,2.58594-3.942,4.74138,4.74138,0,0,0-.709-3.423,3.87439,3.87439,0,0,0-.543-.496,3.158,3.158,0,0,0-2.50293-.579c-2.84106.502-5.451,4.3-5.8291,8.484q-.03588.39148-.042.767c-.484.782-2.76,4.06994-5.26,4.512-.9259.164-1.423.053-1.70593-.559A29.32567,29.32567,0,0,0,63.88831,26.924a11.89133,11.89133,0,0,0,2.587-3.943,4.73733,4.73733,0,0,0-.71094-3.42206,3.84688,3.84688,0,0,0-.542-.498,3.15456,3.15456,0,0,0-2.50207-.578c-2.84192.501-5.45093,4.301-5.829,8.48505a9.63977,9.63977,0,0,0,.199,3.145,6.38575,6.38575,0,0,0,.63306,1.635m29.93494-14.365c4.61108,5.868,1.58605,8.346.286,8.576a3.14,3.14,0,0,1-2.03-.243,23.93532,23.93532,0,0,0,1.744-8.333m-17.033,7.16c.23-2.55,1.296-4.706,2.391-4.966a.82754.82754,0,0,1,.869.367c.828,1.282-1.311,3.763-3.304,5.657a10.43274,10.43274,0,0,1,.044-1.058m-10.565,1.865c.231-2.55,1.298-4.706,2.392-4.965a.82763.82763,0,0,1,.869.366c.829,1.282-1.312,3.763-3.3031,5.658a10.47,10.47,0,0,1,.04211-1.059" style="fill: #7aadd3"/>
        <path d="M35.00476,12.86a2.64334,2.64334,0,0,0,.07593.343,1.85217,1.85217,0,0,0,1.693,1.29,2.40948,2.40948,0,0,0,.283-.03705.36.36,0,0,0,.18005-.167l.014-.028a.37494.37494,0,0,0,.025-.094.24411.24411,0,0,0-.06812-.181,1.55962,1.55962,0,0,1-.371-1.384,1.31236,1.31236,0,0,1,.436-.763,1.84458,1.84458,0,0,1,1.193-.406c.809,0,3.707.573,5.261.293.09607-.016.16-.028.255-.046a24.85816,24.85816,0,0,0-2.30994,9.121l-.13611,1.596h-.0039l-.16309,2.514-.27893,4.177a10.46533,10.46533,0,0,1-.441,2.47c-1.15393,3.616-2.931,4.144-3.58093,4.181-.196.012-.64.006-.76111.188-.17688.271.619.787.785.891a4.83878,4.83878,0,0,0,2.854.587c2.254-.407,4.76-2.466,5.004-6.348l.306-5.605a8.08317,8.08317,0,0,1,1.98193.992,13.16143,13.16143,0,0,1,4.917,6.713,9.79906,9.79906,0,0,1,.379,1.43c.03406.102.113.235.4.182l3.363-.606c.15992-.028.188-.143.162-.321a79.60911,79.60911,0,0,1-1.389-13.047,55.48424,55.48424,0,0,1,1.384-14.287c.14294-.574.0299-.808-.14307-.923-.391-.259-.646.08-.85.481-1.05993,1.94495-3.069,7.759-3.43493,16.886-.061,1.326-.0481,2.566-.052,3.663a17.77927,17.77927,0,0,0-4.701-3.16895,10.50945,10.50945,0,0,0-1.868-.651l.125-2.033c.238-3.804.926-8.431,1.63806-10.02A8.6005,8.6005,0,0,1,48.78467,8.44c.332-.316.489-.747.077-1.073-.229-.179-.50305-.093-.848.08a6.3879,6.3879,0,0,1-2.75891,1.009c-1.562.062-5.01111-.853-7.385-.096a3.95506,3.95506,0,0,0-2.875,4.431c.00293.022.006.046.01.069" style="fill: #7aadd3"/>
        <path d="M21.03613,25.23962c-1.36.241-4.96692,1.953-5.563,8.551-.59594,6.596,1.509,7.557,3.285,7.244a5.07261,5.07261,0,0,0,3.099-2.288,2.00215,2.00215,0,0,0,2.37805,1.321l2.989-.528a3.90644,3.90644,0,0,0,2.9729-3.173l.006-.005.01111-.141.005-.04h-.0011l.578-6.59.02906-.34a2.90906,2.90906,0,0,1,1.78894-2.244c1.69506-.893,2.349-.70605,2.66-.146a1.59829,1.59829,0,0,1-.161,1.734c-.377.541.104.445.104.445,1.11206-.336,1.75208-1.646,2.022-2.73a2.373,2.373,0,0,0-1.60694-3.073c-1.61206-.415-4.358,1.918-4.456,2.002l.00207-.025.101-1.159c.024-.258-.137-.438-.359-.399l-2.47693.438a.60932.60932,0,0,0-.44409.539l-.96192,10.996a.81683.81683,0,0,1-.62.674l-.77906.136a.42824.42824,0,0,1-.51794-.489l.974-11.136c.02392-.257-.139-.43695-.36011-.397l-2.47693.437a.61286.61286,0,0,0-.444.539l-.016.189-.0061-.003s-.396-.579-1.755-.339m1.49012,3.431-.54,6.16706c-.089.991-.812,2.345-1.8,2.521-.989.173-2.07093-1.251-1.762-4.67.309-3.42,2.009-4.868,3.103-5.061.949-.168,1.00391.787.999,1.043" style="fill: #7aadd3"/>
        <path d="M1.12964,21.46521a5.19886,5.19886,0,0,0,.963,1.719c.0249.031.13391.152.13391.152a2.58153,2.58153,0,0,0,1.829.82h.04212a2.14446,2.14446,0,0,0,.32995-.033l.526-.093.062-.532a1.20544,1.20544,0,0,0-.421-1.05695,1.93189,1.93189,0,0,1-.369-.689,2.38847,2.38847,0,0,1-.137-.921,1.80648,1.80648,0,0,1,.089-.432c.07105-.209.29-.85,1.594-1.083a5.95933,5.95933,0,0,1,1.079-.086c.14306,0,.293.004.449.011,0,0,4.6991.209,4.76306.212a7.4833,7.4833,0,0,0-.537.791c-1.08605,1.81-1.84606,5.286-2.13708,9.784l-.29993,4.504a8.45345,8.45345,0,0,1-.894,3.46905,2.12519,2.12519,0,0,1-1.67993,1.285l-.071.002a1.2291,1.2291,0,0,1-.885-.57l-.076-.117-.05493-.054a.89519.89519,0,0,0-.636-.259.92679.92679,0,0,0-.16907.015,1.08084,1.08084,0,0,0-.81995.74,3.95543,3.95543,0,0,0,.006,1.298,4.14313,4.14313,0,0,0,3.21607,3.242,3.3543,3.3543,0,0,0,.606.054h.047q.054,0,.108-.003a5.52922,5.52922,0,0,0,.9469-.087c2.619-.471,5.364-2.824,5.5951-7.014l.355-6.459c.22192-4.439.796-8.43305,1.38293-9.693a3.68755,3.68755,0,0,1,1.103-1.46106,8.2356,8.2356,0,0,0,3.22-1.79895,11.60961,11.60961,0,0,0,2.745-4.275l.01209-.036a1.91462,1.91462,0,0,0,.09094-1.32,1.08139,1.08139,0,0,0-1.023-.857,1.18053,1.18053,0,0,0-.93408.512,6.51689,6.51689,0,0,1-1.50293,1.017,11.73656,11.73656,0,0,1-3.979,1.471,12.86974,12.86974,0,0,1-2.299.198c-.307,0-.623-.01-.93311-.03l-5.03491-.335c-.186-.01-.36707-.016-.54309-.016a7.45092,7.45092,0,0,0-1.314.111,5.84884,5.84884,0,0,0-4.834,6.489,6.92727,6.92727,0,0,0,.29,1.415m4.671-7.196a7.1552,7.1552,0,0,1,1.689-.085l5.028.334a14.224,14.224,0,0,0,3.40906-.178,12.39048,12.39048,0,0,0,4.22192-1.563,6.31771,6.31771,0,0,0,1.691-1.182c.236-.298.542-.39.717.125a1.298,1.298,0,0,1-.104.896,10.918,10.918,0,0,1-2.541,3.966,7.50234,7.50234,0,0,1-3.07007,1.685,4.33827,4.33827,0,0,0-1.418,1.791c-.744,1.596-1.267,6.145-1.459,9.98l-.354,6.456c-.213,3.875-2.72,5.934-5.005,6.346a4.80048,4.80048,0,0,1-.845.075c-.026.002-.056.004-.083.004a2.62979,2.62979,0,0,1-.525-.043,3.44626,3.44626,0,0,1-2.639-2.672,3.78023,3.78023,0,0,1-.0249-.94806.36446.36446,0,0,1,.262-.246.19165.19165,0,0,1,.171.047c.01392.022.027.044.042.066a1.895,1.895,0,0,0,1.542.881,2.75458,2.75458,0,0,0,2.314-1.648,9.10859,9.10859,0,0,0,.986-3.768l.3-4.512c.32105-4.953,1.151-7.989,2.036-9.463a5.153,5.153,0,0,1,1.33-1.554.19528.19528,0,0,0,.068-.195c-.02295-.069-.13989-.121-.34289-.12a7.95488,7.95488,0,0,1-1.3191-.019l-4.547-.202a7.56885,7.56885,0,0,0-1.688.086,2.47794,2.47794,0,0,0-2.145,1.558,2.54978,2.54978,0,0,0-.125.603,3.12411,3.12411,0,0,0,.172,1.212,2.55247,2.55247,0,0,0,.56909.993.48879.48879,0,0,1,.189.44,1.41381,1.41381,0,0,1-.218.022,1.85068,1.85068,0,0,1-1.34094-.6c-.0321-.037-.06506-.071-.097-.11a4.47668,4.47668,0,0,1-.83606-1.491,6.45349,6.45349,0,0,1-.25794-1.27,5.1198,5.1198,0,0,1,4.248-5.697" style="fill: #feffff"/>
        <path d="M95.417,26.00348a4.35963,4.35963,0,0,0-.154-.644l.011-.004a.8898.8898,0,0,0-.854-.609.90578.90578,0,0,0-.16089.014,1.06985,1.06985,0,0,0-.75708.56695c-.053.103-.271.53205-.387.73005a9.54077,9.54077,0,0,1-4.16907,4.086c-.11291.053-.2279.103-.335.146a23.27919,23.27919,0,0,1-4.37,1.11395c-.187.035-.36194.066-.52.095-2.579.492-9.719,1.736-20.526,3.619-6.59693,1.15-14.647,2.552-24.072,4.203l-3.4989.61395c-16.594,2.908-30.925,5.42-34.589,6.082L0,46.20349l1.249,2.033.28394.072c7.60205,1.902,11.335,3.598,14.79907,6.719a.96328.96328,0,0,0,.66992.299l.084-.002.062-.011a1.12465,1.12465,0,0,0,.543-.294c3.90405-3.357,9.786-5.076,15.47607-6.739q1.03491-.30148,2.04492-.601c2.321-.688,18.92-5.315,36.54212-9.23,9.91589-2.198,15.51794-3.454,16.72693-3.795,3.506-.996,7.088-2.674,7.068-7.578a6.2522,6.2522,0,0,0-.132-1.073m-7.132,7.96c-1.27307.359-8.067,1.874-16.687,3.785-17.47607,3.883-34.19409,8.531-36.59009,9.242-6.17993,1.844-13.2749,3.605-17.78491,7.485a.57548.57548,0,0,1-.20007.131c-.09.015-.172-.077-.21094-.113-3.428-3.09-7.057-4.868-15.104-6.883l-.545-.886c3.916-.708,19.889-3.50605,38.084-6.696,25.12707-4.402,40.473-7.036,44.60705-7.824a26.72162,26.72162,0,0,0,5.022-1.247c.124-.05.251-.105.379-.166a10.16433,10.16433,0,0,0,4.48-4.371c.144-.245.403-.759.40893-.771a.34159.34159,0,0,1,.234-.18.18235.18235,0,0,1,.217.118,8.958,8.958,0,0,1,.235,1.493c.01806,4.411-3.13294,5.914-6.54493,6.883" style="fill: #feffff"/>
        <path d="M73.8855,19.944a.82766.82766,0,0,0-.869-.367c-1.095.26-2.161,2.416-2.391,4.966a10.18937,10.18937,0,0,0-.04407,1.058c1.993-1.894,4.13208-4.375,3.30408-5.657m-.704.332a.10043.10043,0,0,1,.02295-.003.171.171,0,0,1,.078.061c.209.324-.017,1.36-1.816,3.343.353-1.96,1.178-3.274,1.71509-3.401" style="fill: #feffff"/>
        <path d="M87.94434,25.95868c1.29992-.23,4.325-2.708-.286-8.576a23.93865,23.93865,0,0,1-1.744,8.333,3.13217,3.13217,0,0,0,2.03.243m.286-6.502c1.074,1.78,1.428,3.327.996,4.458a2.12816,2.12816,0,0,1-1.406,1.336,3.18564,3.18564,0,0,1-.54406.049,2.76907,2.76907,0,0,1-.385-.027,22.8373,22.8373,0,0,0,1.33911-5.816" style="fill: #feffff"/>
        <path d="M63.32092,21.8092a.82745.82745,0,0,0-.86889-.366c-1.094.259-2.16,2.415-2.39209,4.965a10.48622,10.48622,0,0,0-.042,1.058c1.99207-1.894,4.13208-4.376,3.303-5.657m-.70288.333a.0726.0726,0,0,1,.023-.004c.017,0,.059.036.077.062.209.323-.01709,1.357-1.817,3.342.355-1.96,1.17993-3.274,1.717-3.4" style="fill: #feffff"/>
        <path d="M34.29492,12.97a3.20965,3.20965,0,0,0,.103.457,2.58,2.58,0,0,0,2.349,1.785l.041-.001a2.86044,2.86044,0,0,0,.439-.058l.04895-.012.046-.018a1.08025,1.08025,0,0,0,.55408-.504l.03894-.083a1.1815,1.1815,0,0,0,.073-.276.95351.95351,0,0,0-.315-.822.94045.94045,0,0,1-.13-.703.6008.6008,0,0,1,.20093-.35395,1.14757,1.14757,0,0,1,.722-.229c.21,0,.686.058,1.18994.12a26.001,26.001,0,0,0,3.026.25c.03711,0,.072,0,.10706-.001a28.07,28.07,0,0,0-1.833,8.219l-.10205,1.193-.011.006-.028.411c-.094,1.432-.141,2.138-.135,2.51495L40.652,24.863l-.27906,4.177A9.595,9.595,0,0,1,39.964,31.339c-1.08606,3.408-2.63806,3.665-2.94006,3.682l-.069.004a1.4613,1.4613,0,0,0-1.248.508.87829.87829,0,0,0-.12195.681c.032.147.131.595,1.127,1.21405a5.84618,5.84618,0,0,0,2.69507.742,3.7872,3.7872,0,0,0,.667-.058c2.594-.47,5.329-2.818,5.594-7.016l.25-4.594a6.46835,6.46835,0,0,1,.916.536,12.38522,12.38522,0,0,1,4.6399,6.347,9.507,9.507,0,0,1,.35107,1.314l.009.058.018.055a.97025.97025,0,0,0,.96.687,1.41116,1.41116,0,0,0,.248-.023l3.358-.605a.925.925,0,0,0,.752-1.136l-.009-.044c-.00391-.02-.18091-.852-.407-2.306a6.34344,6.34344,0,0,0,.345.717,5.461,5.461,0,0,0,.51611.755,3.91431,3.91431,0,0,0,3.54492,1.529l.041-.005c2.611-.461,5.07995-2.79,6.404-4.249.01892.036.038.071.058.105a5.27114,5.27114,0,0,0,.517.755,3.951,3.951,0,0,0,3.121,1.552c.11707,0,.23706-.005.374-.018l.032-.002.05908-.009a10.47826,10.47826,0,0,0,5.256-2.876A2.66661,2.66661,0,0,0,79.4679,31.11a3.40526,3.40526,0,0,0,.573-.051l2.989-.529a4.33824,4.33824,0,0,0,2.537-1.543,3.93344,3.93344,0,0,0,2.141.652H87.709c1.83692,0,3.703-1.388,5.1189-3.80805a7.52536,7.52536,0,0,0,.42505-6.242A10.07245,10.07245,0,0,0,87.042,13.662a.859.859,0,0,0-.13806-.043l-.028-.007-.02906-.005a1.0068,1.0068,0,0,0-.156-.013.8284.8284,0,0,0-.157.014,1.05863,1.05863,0,0,0-.67005.43l-.02392.033-1.166,2.104-.02.052a1.01369,1.01369,0,0,0-.051.182l-.01294.074.004.186c.08191,3.868-1.432,8.325-2.405,8.876-.01306.005-.027.00995-.04.014a4.86547,4.86547,0,0,1-.046-1.426l.005-.096,2.001-22.866a1.0839,1.0839,0,0,0-.273-.841,1.02287,1.02287,0,0,0-.75-.33,1.21062,1.21062,0,0,0-.184.016L78.403.811l-.038.011a1.245,1.245,0,0,0-.78308.696A1.24924,1.24924,0,0,0,77.71,2.642,10.97136,10.97136,0,0,1,78.8429,7.874L77.803,19.764a5.13919,5.13919,0,0,0-.9021-2.507l-.01795-.024-.021-.021a4.521,4.521,0,0,0-.645-.592,3.86577,3.86577,0,0,0-2.32-.776,4.21839,4.21839,0,0,0-.738.067c-2.542.448-4.849,3.088-5.889,6.447a5.45716,5.45716,0,0,0-.93494-3.236l-.01807-.023-.01892-.021a4.37907,4.37907,0,0,0-.64709-.593,3.85339,3.85339,0,0,0-2.319-.77594,4.21447,4.21447,0,0,0-.73694.066c-3.17505.561-5.985,4.541-6.41309,9.074-.1759-1.775-.32592-3.827-.39294-6.08a55.36523,55.36523,0,0,1,1.35-14.045l.012-.043a1.43106,1.43106,0,0,0-.443-1.694,1.17422,1.17422,0,0,0-.65894-.211,1.46472,1.46472,0,0,0-1.219.94605c-1.136,2.082-3.155,8.048-3.522,17.197-.03405.735-.045,1.45-.04907,2.12a20.63352,20.63352,0,0,0-3.677-2.241,10.11841,10.11841,0,0,0-1.42395-.539l.09-1.452c.249-4.007.957-8.39,1.561-9.743A7.88694,7.88694,0,0,1,49.28088,8.96a1.57586,1.57586,0,0,0,.545-1.195,1.30332,1.30332,0,0,0-.521-.964,1.17478,1.17478,0,0,0-.73205-.252,1.99647,1.99647,0,0,0-.87891.253c-.11707.058-.251.132-.39709.213a4.67464,4.67464,0,0,1-2.07093.723c-.043.00195-.087.003-.134.003a17.42052,17.42052,0,0,1-1.794-.159,26.49732,26.49732,0,0,0-3.118-.243,8.31684,8.31684,0,0,0-2.54.34A4.69992,4.69992,0,0,0,34.288,12.922ZM56.891,26.967c.37793-4.183,2.98792-7.983,5.83-8.484a3.15493,3.15493,0,0,1,2.50195.578,3.82591,3.82591,0,0,1,.542.498,4.73529,4.73529,0,0,1,.71009,3.422,11.86016,11.86016,0,0,1-2.58606,3.942,29.33537,29.33537,0,0,1-3.442,2.899c.28308.612.78.723,1.706.559,2.5-.442,4.777-3.73,5.26-4.512q.00751-.375.042-.767c.379-4.184,2.988-7.982,5.829-8.48395a3.15712,3.15712,0,0,1,2.50305.579,3.8296,3.8296,0,0,1,.543.496,4.7379,4.7379,0,0,1,.709,3.423,11.89353,11.89353,0,0,1-2.58606,3.942,29.5059,29.5059,0,0,1-3.43994,2.9c.281.611.779.72,1.705.557,2.421-.427,4.74108-3.541,5.44909-4.672L79.558,7.936a11.64141,11.64141,0,0,0-1.22607-5.654c-.34692-.6.235-.77.235-.77l1.964-.346.00611-.001L83.028.724a.322.322,0,0,1,.365.384L81.392,23.974c-.04309.788-.191,2.491.798,2.317a1.43772,1.43772,0,0,0,.309-.097c1.433-.739,2.894-5.692,2.812-9.541-.001-.037-.001-.074-.002-.112a.37152.37152,0,0,1,.01794-.062l.042-.074,1.037-1.873.042-.075a.33729.33729,0,0,1,.2091-.141.19833.19833,0,0,1,.073,0c.01294.004.027.006.03894.011,6.02307,2.258,7.339,7.89,5.439,11.14-1.672,2.86-4.31592,4.659-6.803,2.502a3.79952,3.79952,0,0,1-2.5,1.854l-2.989.528A2.05214,2.05214,0,0,1,77.413,28.202l-.005.005a10.68684,10.68684,0,0,1-5.767,3.601l-.01709.001A3.23445,3.23445,0,0,1,68.736,30.538a4.68862,4.68862,0,0,1-.448-.655,5.98142,5.98142,0,0,1-.477-1.094c-.733.909-3.67993,4.345-6.735,4.884l-.016.002a3.237,3.237,0,0,1-2.887-1.272,4.59928,4.59928,0,0,1-.44909-.655,6.31541,6.31541,0,0,1-.63294-1.63495,9.60945,9.60945,0,0,1-.2-3.146m10.001-3.058q-.10053.55654-.152,1.128c-.019.20105-.0321.40405-.04.61505-.86,1.334-2.80408,3.69-4.672,4.02-.1.018-.192.032-.275.042.028-.022.056-.043.085-.066A19.12075,19.12075,0,0,0,64.418,27.41a15.17265,15.17265,0,0,0,2.474-3.501m10.75-2.32-.175,2.017c-.9,1.384-2.947,3.86-4.874,4.201-.1.018-.192.032-.27491.04.03089-.022.06092-.04595.091-.069a19.12034,19.12034,0,0,0,2.574-2.234A13.67339,13.67339,0,0,0,77.642,21.589M37.87,8.36c2.3739-.757,5.82189.158,7.38488.096a6.393,6.393,0,0,0,2.759-1.009c.345-.173.619-.259.848-.08.411.326.255.757-.077,1.073A8.57814,8.57814,0,0,0,47.168,10.742c-.712,1.589-1.401,6.216-1.63806,10.02l-.125,2.033a10.47163,10.47163,0,0,1,1.86706.651A17.76615,17.76615,0,0,1,51.97388,26.615c.00305-1.097-.00891-2.337.052-3.663.36511-9.127,2.374-14.941,3.43506-16.886.204-.401.459-.74005.849-.481.173.115.287.349.144.923A55.43409,55.43409,0,0,0,55.07,20.795a79.60988,79.60988,0,0,0,1.389,13.047c.026.178-.00207.293-.1621.321l-3.3639.606c-.28711.053-.365-.08-.399-.182a9.80068,9.80068,0,0,0-.379-1.43,13.16728,13.16728,0,0,0-4.917-6.713,8.10261,8.10261,0,0,0-1.98194-.992l-.306,5.605c-.244,3.882-2.75,5.941-5.004,6.348a4.83847,4.83847,0,0,1-2.854-.587c-.166-.104-.962-.62-.785-.891.1211-.182.56507-.176.76-.188.651-.037,2.42811-.565,3.58106-4.181a10.41768,10.41768,0,0,0,.442-2.47l.27893-4.177.16308-2.514h.00391l.136-1.596A24.88142,24.88142,0,0,1,43.981,11.68c-.094.018-.15808.03-.255.046-1.553.28-4.452-.293-5.26-.293a1.847,1.847,0,0,0-1.194.406,1.311,1.311,0,0,0-.43506.763,1.55647,1.55647,0,0,0,.371,1.384.24048.24048,0,0,1,.067.181.37283.37283,0,0,1-.02392.094l-.014.028a.36045.36045,0,0,1-.18006.167,2.43268,2.43268,0,0,1-.28393.03705,1.852,1.852,0,0,1-1.692-1.29,2.50983,2.50983,0,0,1-.07605-.343c-.0039-.02295-.007-.047-.00988-.069A3.954,3.954,0,0,1,37.87,8.36" style="fill: #feffff"/>
        <path d="M21.52734,27.62708c-1.094.194-2.79406,1.64105-3.103,5.061s.77295,4.844,1.762,4.67c.988-.176,1.71106-1.529,1.8-2.521l.53992-6.167c.005-.255-.04993-1.21-.99891-1.043m-.256,7.146c-.06909.76105-.64111,1.776-1.21008,1.877a.218.218,0,0,1-.036.004.47539.47539,0,0,1-.29492-.177c-.197-.217-.82508-1.125-.59009-3.725.26807-2.962,1.649-4.264,2.51208-4.417a.43214.43214,0,0,1,.085-.009l.01294.001a.77317.77317,0,0,1,.057.308Z" style="fill: #feffff"/>
        <path d="M22.42725,24.56171a2.85617,2.85617,0,0,0-.77308-.099,4.28822,4.28822,0,0,0-.743.069c-.554.098-5.42993,1.188-6.15393,9.194-.32007,3.545.07605,5.872,1.21,7.115a2.941,2.941,0,0,0,2.228.964,3.92163,3.92163,0,0,0,.688-.063,5.47507,5.47507,0,0,0,2.913-1.728,2.70312,2.70312,0,0,0,1.983.814,3.29962,3.29962,0,0,0,.58106-.052l2.989-.529a4.60447,4.60447,0,0,0,3.50391-3.48l.04-.032.036-.444.103-.829h-.02906l.536-6.13a2.22432,2.22432,0,0,1,1.41-1.689,3.60866,3.60866,0,0,1,1.496-.535c.144,0,.16.028.202.103a.9061.9061,0,0,1-.124.973,1.04833,1.04833,0,0,0-.178,1.126.87554.87554,0,0,0,.798.45606,1.087,1.087,0,0,0,.214-.02106l.04-.009.028-.008c1.663-.502,2.31006-2.437,2.511-3.245a3.06491,3.06491,0,0,0-2.125-3.942,2.37633,2.37633,0,0,0-.594-.072,6.60648,6.60648,0,0,0-3.245,1.277,1.051,1.051,0,0,0-.25-.487.99161.99161,0,0,0-.74292-.326,1.07135,1.07135,0,0,0-.18408.015l-2.475.438a1.329,1.329,0,0,0-1.037,1.184l-.959,10.965c-.004.021-.03308.056-.031.06l-.428.076.94495-10.792a1.11109,1.11109,0,0,0-.274-.86.995.995,0,0,0-.741-.327,1.07617,1.07617,0,0,0-.18592.017l-2.477.43695a1.22372,1.22372,0,0,0-.705.416m3.307-.145c.221-.04.38391.14.36.39605l-.974,11.137a.42731.42731,0,0,0,.51794.488l.77906-.135a.81683.81683,0,0,0,.62-.674l.96192-10.996a.60932.60932,0,0,1,.44409-.539l2.47693-.438c.222-.039.38305.141.359.399l-.101,1.15906-.00207.025c.098-.084,2.844-2.417,4.456-2.002a2.373,2.373,0,0,1,1.60694,3.073c-.2699,1.08405-.90992,2.39405-2.022,2.73,0,0-.48095.096-.104-.445a1.59832,1.59832,0,0,0,.161-1.734c-.311-.56-.965-.747-2.66.146a2.90914,2.90914,0,0,0-1.78894,2.244l-.02906.34-.578,6.59h.0011l-.005.04-.011.141-.00611.005a3.90659,3.90659,0,0,1-2.9729,3.173l-2.989.528a2.00215,2.00215,0,0,1-2.37805-1.321,5.0727,5.0727,0,0,1-3.099,2.288c-1.776.313-3.881-.648-3.285-7.244.59607-6.598,4.203-8.311,5.563-8.551,1.359-.24006,1.755.339,1.755.339l.005.003.01709-.189a.61286.61286,0,0,1,.444-.539Z" style="fill: #feffff"/>
      </g>
    </g>
  </g>
</svg>
