<svg xmlns="http://www.w3.org/2000/svg" width="125.99948" height="60.41534" viewBox="0 0 125.99948 60.41534">
  <title>UNC combo mark blue</title>
  <g id="Layer_2" data-name="Layer 2">
    <g id="page2">
      <g>
        <path d="M113.70789,57.12531l-.564-.001v3.291h6.047l-.014-3.548h-.945a.61588.61588,0,0,1-.599-.473l-3.692-15.227h-4.376l-4.017,15.246a.61559.61559,0,0,1-.596.459h-.849v3.543h5.832v-3.292h-.527a.61833.61833,0,0,1-.593-.786l.433-2.057a.6192.6192,0,0,1,.592-.44494h3.489a.61842.61842,0,0,1,.599.469l.38,2.053a.624.624,0,0,1-.113.532.61212.61212,0,0,1-.487.236m-.876-6.272a.61779.61779,0,0,1-.481.234l-1.482.004a.62744.62744,0,0,1-.492-.242.6201.6201,0,0,1-.103-.538l.804-2.918a.61748.61748,0,0,1,.594-.453h.014a.61886.61886,0,0,1,.589.478l.674,2.91205a.61048.61048,0,0,1-.117.523" style="fill: #7aadd3"/>
        <path d="M26.7534,56.38129l-3.705-15.215h-4.376l-4.017,15.226a.61563.61563,0,0,1-.597.459h-.849v3.564h5.833v-3.293h-.528a.6171.6171,0,0,1-.593-.785l.434-2.057a.6192.6192,0,0,1,.592-.44494h3.489a.61844.61844,0,0,1,.599.469l.379,2.053a.61714.61714,0,0,1-.6.769l-.564-.002v3.291h6.048v-3.564h-.945a.61542.61542,0,0,1-.6-.47m-4.815-5.528a.61777.61777,0,0,1-.481.234l-1.482.004a.61567.61567,0,0,1-.595-.78l.805-2.919a.61683.61683,0,0,1,.594-.452h.013a.61577.61577,0,0,1,.589.478l.675,2.91205a.61165.61165,0,0,1-.118.523" style="fill: #7aadd3"/>
        <path d="M82.1225,56.23523v-10.904a.61755.61755,0,0,1,.618-.617h.607v-3.546h-6.303v3.546h.594a.61884.61884,0,0,1,.618.617v10.904a.61817.61817,0,0,1-.618.617h-.594v3.56305h6.303V56.85223h-.607a.61688.61688,0,0,1-.618-.617" style="fill: #7aadd3"/>
        <path d="M67.2851,56.71271a.54634.54634,0,0,1-.162-.387v-11.362a.54669.54669,0,0,1,.547-.545h.893v-3.251h-6.517v3.251h.663a.546.546,0,0,1,.547.545v11.362a.547.547,0,0,1-.547.546h-.663v3.543h11.778v-7.09h-3.289v3.001a.54678.54678,0,0,1-.543.546h-2.322a.54648.54648,0,0,1-.385-.15906" style="fill: #7aadd3"/>
        <path d="M42.9126,56.49475l-1.797-4.809,1.783-2.223v-5.796l-1.897-2.5h-10.486v3.232h.693a.54541.54541,0,0,1,.545.544v11.365a.54545.54545,0,0,1-.545.544h-.693v3.563h5.857v-3.31h-.257a.61843.61843,0,0,1-.617-.619v-2.988a.608.608,0,0,1,.182-.436.61854.61854,0,0,1,.436-.18l1.238.002a.619.619,0,0,1,.576.399l1.225,3.088a.54528.54528,0,0,1-.446.734v3.31h5.655v-3.563h-.943a.543.543,0,0,1-.509-.357m-3.693-7.32306a.54564.54564,0,0,1-.544.546h-2.511a.54735.54735,0,0,1-.546-.546V44.94275a.54626.54626,0,0,1,.546-.544h2.511a.54454.54454,0,0,1,.544.544Z" style="fill: #7aadd3"/>
        <path d="M49.18289,41.16632l-1.976,2.442v14.251l1.965,2.556h7.567l2.004-2.56v-14.119l-2.011-2.57Zm5.692,15.146a.54544.54544,0,0,1-.544.545h-2.766a.54627.54627,0,0,1-.545-.545v-11.081a.5458.5458,0,0,1,.545-.546h2.766a.545.545,0,0,1,.544.546Z" style="fill: #7aadd3"/>
        <path d="M1.973,41.16681,0,43.60382v14.184l2.022,2.627H9.063l2.109-2.573v-4.354H7.655v2.662a.61774.61774,0,0,1-.618.618H4.551a.61816.61816,0,0,1-.617-.618v-10.851a.61815.61815,0,0,1,.617-.618H7.037a.61774.61774,0,0,1,.618.618v2.288h3.517v-3.858l-1.979-2.562Z" style="fill: #7aadd3"/>
        <path d="M100.577,56.3631v-11.42a.54564.54564,0,0,1,.545-.545h.639v-3.231H96.212v3.231h.72a.54565.54565,0,0,1,.545.545v8.248l-5.106-12.024H86.754v3.231h.665a.55013.55013,0,0,1,.386.16.54155.54155,0,0,1,.159.386l-.015,11.363a.54607.54607,0,0,1-.545.544h-.666l.012,3.564h5.752l-.008-3.311h-.893a.53876.53876,0,0,1-.387-.16.54534.54534,0,0,1-.16-.388l.011-9.282,5.222,12.146.428.995h5.122v-3.564h-.721a.54243.54243,0,0,1-.539-.488" style="fill: #7aadd3"/>
        <path d="M125.99948,60.415h-.441V57.952h-.013l-.994,2.463h-.269l-.965-2.463h-.015v2.463h-.441v-2.904h.724l.835,2.048.862-2.048h.717Zm-3.669-2.463h-.952v2.463h-.442V57.952h-.951v-.441h2.345Z" style="fill: #7aadd3"/>
        <path d="M76.32071,20.175a.77362.77362,0,0,0-.549-.228.69492.69492,0,0,0-.089.006.7713.7713,0,0,0-.57.362,7.61594,7.61594,0,0,1-1.284,1.535,32.1482,32.1482,0,0,1,0-8.223,7.62062,7.62062,0,0,1,1.284,1.536.77284.77284,0,0,0,.57.361.547.547,0,0,0,.089.006.77673.77673,0,0,0,.549-.227l4.347-4.346a.77551.77551,0,0,0,.055-1.036,18.92512,18.92512,0,0,0-4.686-4.091,19.47864,19.47864,0,0,1,1.082-2.005.77407.77407,0,0,0-.265-1.078,30.31992,30.31992,0,0,0-5.74-2.587.80532.80532,0,0,0-.246-.039.77419.77419,0,0,0-.669.383c-.417.711-.811,1.46-1.177,2.233a34.04224,34.04224,0,0,0-9.426-1.295,34.46392,34.46392,0,0,0-8.382,1.013L49.26569.261a.77692.77692,0,0,0-.58-.261.76579.76579,0,0,0-.236.038,30.3571,30.3571,0,0,0-6.114,2.71.77819.77819,0,0,0-.232,1.13,19.52211,19.52211,0,0,1,1.05,1.95105c-4.85,3.069-7.615,7.37994-7.615,11.91s2.765,8.84,7.615,11.911a19.44159,19.44159,0,0,1-1.083,2.002.7849.7849,0,0,0-.093.596.77625.77625,0,0,0,.36.483,30.3079,30.3079,0,0,0,5.739,2.586.77745.77745,0,0,0,.916-.343c.416-.713.811-1.461,1.176-2.232a34.09806,34.09806,0,0,0,9.427,1.293,34.48524,34.48524,0,0,0,8.381-1.012l1.948,2.193a.77082.77082,0,0,0,.58.26.747.747,0,0,0,.237-.037,30.3703,30.3703,0,0,0,6.113-2.71.77615.77615,0,0,0,.233-1.129,19.55523,19.55523,0,0,1-1.051-1.951,18.97254,18.97254,0,0,0,4.686-4.093.77424.77424,0,0,0-.055-1.035Zm-30.959,1.677a5.74557,5.74557,0,0,1-2.063-4.113,5.74179,5.74179,0,0,1,2.063-4.113,32.04815,32.04815,0,0,1,0,8.226m14.234,4.423a28.901,28.901,0,0,1-6.998-.84,37.43475,37.43475,0,0,0,.789-7.696c0-.39-.005-.779-.017-1.169l8.538,9.616c-.767.059-1.54.089-2.312.089m6.225-7.368L57.28268,9.29c.764-.059,1.538-.087,2.313-.087a28.83935,28.83935,0,0,1,6.996.84,37.57388,37.57388,0,0,0-.789,7.696c0,.388.007.778.018,1.168" style="fill: #7aadd3"/>
        <path d="M80.2692,28.63916a1.98649,1.98649,0,1,1-1.992,1.988,1.983,1.983,0,0,1,1.992-1.988m0,4.35895a2.372,2.372,0,1,0-2.378-2.371,2.35794,2.35794,0,0,0,2.378,2.371m.411-2.252a.678.678,0,0,0,.712-.73c0-.561-.435-.707-.917-.707h-1.123v2.668h.386v-1.231h.494l.683,1.231h.44Zm-.278-1.05c.32,0,.604.025.604.36206,0,.363-.495.301-.857.301h-.411v-.663Z" style="fill: #7aadd3"/>
      </g>
    </g>
  </g>
</svg>
